<?xml version="1.0" standalone="no"?>
<!DOCTYPE svg PUBLIC "-//W3C//DTD SVG 20010904//EN"
 "http://www.w3.org/TR/2001/REC-SVG-20010904/DTD/svg10.dtd">
<svg version="1.0" xmlns="http://www.w3.org/2000/svg"
 width="512.000000pt" height="512.000000pt" viewBox="0 0 512.000000 512.000000"
 preserveAspectRatio="xMidYMid meet">

<g transform="translate(0.000000,512.000000) scale(0.100000,-0.100000)"
fill="#E94A12" stroke="none">
<path d="M2385 4676 c-309 -73 -538 -280 -637 -576 l-32 -95 -6 -295 -5 -295
-175 -6 c-193 -7 -220 -13 -331 -70 -147 -76 -262 -212 -316 -372 l-28 -82 0
-965 0 -965 28 -82 c54 -161 169 -295 317 -373 142 -73 73 -70 1357 -70 789 0
1169 3 1205 11 81 16 225 91 290 149 110 98 183 236 208 390 6 41 10 391 10
940 0 549 -4 899 -10 940 -39 246 -200 441 -430 521 -54 19 -94 24 -240 28
l-175 6 -5 295 -6 295 -32 95 c-94 272 -282 460 -550 550 -88 30 -110 33 -237
36 -96 3 -159 -1 -200 -10z m321 -437 c149 -56 250 -181 275 -341 5 -35 8
-157 7 -273 l-3 -210 -425 0 -425 0 -3 210 c-1 116 2 239 7 273 35 226 234
385 456 365 33 -3 83 -14 111 -24z m-32 -2139 c20 -14 49 -43 64 -64 24 -35
27 -49 27 -116 0 -67 -3 -81 -27 -116 -15 -21 -44 -50 -65 -64 -31 -21 -48
-25 -113 -25 -65 0 -82 4 -113 25 -21 14 -50 43 -65 64 -24 35 -27 49 -27 117
0 70 3 81 30 120 45 64 104 91 186 87 50 -3 75 -10 103 -28z"/>
</g>
</svg>
