<?xml version="1.0" standalone="no"?>
<!DOCTYPE svg PUBLIC "-//W3C//DTD SVG 20010904//EN"
 "http://www.w3.org/TR/2001/REC-SVG-20010904/DTD/svg10.dtd">
<svg version="1.0" xmlns="http://www.w3.org/2000/svg"
 width="512.000000pt" height="512.000000pt" viewBox="0 0 512.000000 512.000000"
 preserveAspectRatio="xMidYMid meet">

<g transform="translate(0.000000,512.000000) scale(0.100000,-0.100000)"
fill="#E94A12" stroke="none">
<path d="M2455 4904 c-460 -50 -844 -311 -1040 -709 -420 -854 195 -1845 1145
-1845 345 0 663 131 905 375 232 233 358 521 372 855 24 566 -346 1095 -883
1263 -152 48 -371 74 -499 61z"/>
<path d="M1790 2115 c-304 -52 -558 -188 -776 -417 -223 -233 -353 -537 -370
-863 -6 -103 -4 -132 14 -203 49 -194 182 -333 377 -395 l70 -22 1455 0 1455
0 70 22 c195 62 328 201 377 395 17 70 20 101 15 194 -19 346 -148 642 -390
891 -194 200 -411 321 -700 389 -64 16 -149 18 -797 20 -556 2 -743 -1 -800
-11z"/>
</g>
</svg>
